<svg width="126" height="170" viewBox="0 0 126 170" fill="none" xmlns="http://www.w3.org/2000/svg">
<g clip-path="url(#clip0_395_14119)">
<path d="M11.9917 167.809C9.58358 166.643 7.43196 165.008 5.66284 162.999C3.89373 160.991 2.54269 158.649 1.6888 156.111C0.834922 153.573 0.49537 150.89 0.690045 148.219C0.884721 145.548 1.60969 142.943 2.82253 140.556C4.03537 138.169 5.7117 136.049 7.75333 134.318C9.79495 132.588 12.1609 131.283 14.7125 130.48C17.2641 129.677 19.9502 129.391 22.6135 129.64C25.2767 129.889 27.8636 130.667 30.2226 131.93C34.8636 134.413 38.3473 138.619 39.9259 143.645C41.5045 148.671 41.0522 154.117 38.6661 158.812C36.28 163.508 32.1503 167.081 27.1633 168.763C22.1762 170.444 16.7294 170.102 11.9917 167.809V167.809Z" fill="#F54703"/>
<path d="M8.05961 32.3462C1.81588 43.9714 -0.35772 57.3558 1.88579 70.3626C4.12931 83.3695 10.6606 95.2488 20.4369 104.104C22.6711 106.162 26.1564 106.117 28.3013 104.059C32.5653 100.025 35.5092 94.7932 36.7455 89.0516C37.9818 83.31 37.4525 77.3282 35.2272 71.8936C32.79 66.2693 32.1906 60.0177 33.5148 54.032C34.8389 48.0462 38.0187 42.6326 42.6 38.5646C47.2809 34.3971 53.0936 31.7169 59.2995 30.8646C65.5053 30.0123 71.8242 31.0263 77.4531 33.7778C83.019 36.4188 87.6192 40.7382 90.6084 46.1299C93.5975 51.5216 94.8255 57.715 94.1201 63.841C93.2967 69.9833 90.6029 75.7224 86.4054 80.2772C82.2078 84.832 76.7103 87.9812 70.6612 89.2962C64.8949 90.6629 59.6585 93.7 55.6057 98.0281C51.5529 102.356 48.8633 107.784 47.8726 113.633C47.4258 116.541 49.4365 119.27 52.475 119.807C83.0833 125.175 113.111 107.907 122.896 79.3646C132.727 50.7331 119.322 19.5515 91.4838 6.13044C61.4564 -8.27482 23.5201 3.66991 8.05961 32.3462V32.3462Z" fill="url(#paint0_linear_395_14119)"/>
</g>
<defs>
<linearGradient id="paint0_linear_395_14119" x1="35.4506" y1="114.215" x2="91.7232" y2="6.49862" gradientUnits="userSpaceOnUse">
<stop offset="0.01" stop-color="#F54703"/>
<stop offset="1" stop-color="#FAC902"/>
</linearGradient>
<clipPath id="clip0_395_14119">
<rect width="126" height="170" fill="white"/>
</clipPath>
</defs>
</svg>
