<svg width="706" height="170" viewBox="0 0 706 170" fill="none" xmlns="http://www.w3.org/2000/svg">
<g clip-path="url(#clip0_395_13989)">
<path d="M187.134 83.6594H196.92C199.332 83.7936 201.656 82.8541 203.399 81.0646C205.097 79.2752 205.99 76.8146 205.856 74.3094C205.856 68.762 202.282 65.0936 196.92 65.0936H187.134V83.6594ZM180.699 116.317C178.957 116.362 177.303 115.646 176.052 114.349C174.846 113.051 174.22 111.262 174.265 109.428V60.5752C174.22 58.6962 174.891 56.9515 176.097 55.6541C177.348 54.312 179.046 53.641 180.789 53.6857H196.83C210.101 53.6857 218.948 61.962 218.948 74.2646C218.948 86.6567 209.833 95.0225 196.83 95.0225H187.134V109.428C187.179 111.262 186.553 113.007 185.346 114.349C184.095 115.691 182.442 116.362 180.699 116.317V116.317Z" fill="#131F3E"/>
<path d="M250.362 83.5262H260.639C261.884 83.6036 263.131 83.4167 264.298 82.9776C265.466 82.5386 266.527 81.8574 267.414 80.9787C268.3 80.1001 268.99 79.0438 269.44 77.8791C269.889 76.7145 270.088 75.4679 270.023 74.221C270.023 68.7183 266.225 65.0499 260.639 65.0499H250.362V83.5262ZM279.719 116.095C277.172 116.139 274.804 114.842 273.553 112.65L261.712 94.8447H250.317V109.25C250.317 111.042 249.606 112.76 248.341 114.027C247.076 115.293 245.359 116.005 243.57 116.005C241.781 116.005 240.064 115.293 238.799 114.027C237.534 112.76 236.823 111.042 236.823 109.25V60.5315C236.791 59.6203 236.948 58.7124 237.283 57.8647C237.619 57.017 238.125 56.2478 238.771 55.6052C239.417 54.9626 240.189 54.4605 241.038 54.1304C241.886 53.8003 242.794 53.6492 243.704 53.6868H260.55C274.491 53.6868 283.785 61.9183 283.785 74.1315C283.855 77.2766 283.164 80.3919 281.772 83.2119C280.379 86.0318 278.326 88.4727 275.787 90.3262L274.446 91.2657L283.919 104.642C285.17 106.208 285.885 108.131 285.975 110.145C285.894 111.751 285.2 113.265 284.035 114.372C282.871 115.48 281.325 116.097 279.719 116.095V116.095Z" fill="#131F3E"/>
<path d="M328.425 65.6308C325.844 65.5041 323.266 65.9174 320.854 66.8443C318.442 67.7712 316.249 69.1913 314.416 71.014C312.583 72.8367 311.15 75.022 310.207 77.4304C309.265 79.8388 308.834 82.4175 308.943 85.0018C308.813 87.5914 309.229 90.1794 310.164 92.5974C311.099 95.0153 312.532 97.2092 314.37 99.0363C316.207 100.863 318.409 102.283 320.83 103.202C323.252 104.122 325.839 104.521 328.425 104.373C340.043 104.373 347.907 96.4097 347.907 85.0018C348.002 82.421 347.562 79.8484 346.615 77.4462C345.667 75.044 344.234 72.8643 342.403 71.0444C340.573 69.2245 338.386 67.804 335.98 66.8722C333.574 65.9405 331.002 65.5178 328.425 65.6308V65.6308ZM328.335 116.318C309.568 116.318 294.912 102.583 294.912 85.0018C294.912 67.4202 309.613 53.686 328.335 53.686C347.058 53.686 361.937 67.4202 361.937 85.0018C361.937 102.583 347.192 116.318 328.335 116.318Z" fill="#131F3E"/>
<path d="M397.684 116.318C396.789 116.33 395.9 116.161 395.073 115.82C394.245 115.478 393.495 114.972 392.868 114.332C392.242 113.692 391.751 112.932 391.427 112.096C391.102 111.261 390.951 110.369 390.981 109.473V65.586H376.772C373.51 65.586 370.874 62.9018 370.874 59.636C370.874 56.3255 373.51 53.686 376.772 53.686H418.596C421.857 53.686 424.494 56.3703 424.494 59.636C424.494 62.9018 421.857 65.586 418.596 65.586H404.431V109.428C404.476 111.262 403.805 113.052 402.509 114.349C401.214 115.691 399.471 116.362 397.639 116.318H397.684Z" fill="#131F3E"/>
<path d="M462.474 65.6308C459.894 65.5041 457.315 65.9174 454.903 66.8443C452.491 67.7712 450.299 69.1913 448.465 71.014C446.632 72.8367 445.199 75.022 444.256 77.4304C443.314 79.8388 442.883 82.4175 442.992 85.0018C442.862 87.5914 443.279 90.1794 444.214 92.5974C445.149 95.0153 446.582 97.2092 448.419 99.0363C450.257 100.863 452.458 102.283 454.879 103.202C457.301 104.122 459.889 104.521 462.474 104.373C474.092 104.373 481.956 96.4097 481.956 85.0018C482.051 82.421 481.611 79.8484 480.664 77.4462C479.717 75.044 478.283 72.8643 476.453 71.0444C474.622 69.2245 472.435 67.804 470.029 66.8722C467.624 65.9405 465.051 65.5178 462.474 65.6308V65.6308ZM462.385 116.318C443.618 116.318 428.961 102.583 428.961 85.0018C428.961 67.4202 443.662 53.686 462.385 53.686C481.107 53.686 495.987 67.4202 495.987 85.0018C495.987 102.583 481.196 116.318 462.385 116.318Z" fill="#131F3E"/>
<path d="M515.961 116.318C515.08 116.349 514.203 116.194 513.387 115.863C512.571 115.531 511.834 115.031 511.224 114.394C509.973 113.052 509.303 111.263 509.437 109.473V60.5312C509.347 58.6523 510.018 56.9075 511.269 55.6102C512.52 54.2681 514.263 53.597 516.05 53.6417H543.843C547.016 53.6417 549.607 56.3259 549.607 59.5917C549.625 60.3629 549.49 61.13 549.208 61.8482C548.927 62.5664 548.506 63.2215 547.97 63.7752C547.433 64.329 546.792 64.7703 546.084 65.0736C545.375 65.3769 544.614 65.536 543.843 65.5417H522.529V81.1996H538.839C542.056 81.1996 544.647 83.8839 544.647 87.1944C544.659 87.9656 544.518 88.7315 544.231 89.4475C543.945 90.1634 543.519 90.8152 542.978 91.3647C542.437 91.9143 541.793 92.3507 541.082 92.6485C540.372 92.9464 539.609 93.0997 538.839 93.0996H522.529V109.429C522.618 111.218 521.948 113.008 520.697 114.35C519.446 115.647 517.748 116.318 515.961 116.273V116.318Z" fill="#131F3E"/>
<path d="M574.184 116.318C572.397 116.362 570.61 115.691 569.359 114.439C568.724 113.811 568.229 113.056 567.906 112.223C567.582 111.391 567.438 110.499 567.482 109.607V60.6202C567.392 58.2044 568.644 55.8781 570.744 54.6254C571.785 54.0073 572.974 53.6812 574.184 53.6812C575.395 53.6812 576.584 54.0073 577.625 54.6254C579.725 55.8781 580.976 58.2044 580.887 60.6202V109.607C580.976 111.396 580.306 113.186 579.055 114.439C577.759 115.736 576.016 116.407 574.184 116.362V116.318Z" fill="#131F3E"/>
<path d="M612.297 83.5262H622.574C623.817 83.5965 625.061 83.4047 626.225 82.9631C627.39 82.5215 628.448 81.8401 629.333 80.9629C630.218 80.0857 630.908 79.0324 631.36 77.871C631.813 76.7096 632.016 75.4661 631.958 74.221C631.958 68.7183 628.204 65.0499 622.574 65.0499H612.297V83.5262ZM641.699 116.095C639.197 116.139 636.784 114.842 635.577 112.65L623.691 94.8447H612.297V109.25C612.382 110.488 612.123 111.725 611.548 112.825C610.974 113.924 610.105 114.843 609.04 115.478C607.976 116.113 606.756 116.44 605.516 116.422C604.277 116.405 603.066 116.044 602.02 115.379C600.969 114.752 600.11 113.85 599.535 112.77C598.96 111.689 598.692 110.472 598.758 109.25V60.5315C598.726 59.6203 598.883 58.7124 599.218 57.8647C599.554 57.017 600.06 56.2478 600.706 55.6052C601.352 54.9626 602.124 54.4605 602.973 54.1304C603.821 53.8003 604.729 53.6492 605.639 53.6868H622.485C636.426 53.6868 645.72 61.9183 645.72 74.1315C645.778 77.273 645.077 80.3819 643.676 83.1938C642.276 86.0056 640.218 88.4372 637.677 90.2815L636.381 91.2657L645.854 104.642C647.105 106.208 647.82 108.131 647.91 110.145C647.83 111.743 647.142 113.25 645.987 114.357C644.832 115.463 643.297 116.085 641.699 116.095V116.095Z" fill="#131F3E"/>
<path d="M668.377 116.317C667.446 116.348 666.518 116.188 665.65 115.846C664.782 115.505 663.994 114.989 663.333 114.332C662.671 113.674 662.152 112.888 661.805 112.021C661.458 111.155 661.292 110.227 661.317 109.294V60.7094C661.272 59.7713 661.424 58.834 661.764 57.9584C662.103 57.0828 662.622 56.2883 663.288 55.6262C663.953 54.9642 664.75 54.4494 665.627 54.1151C666.504 53.7808 667.441 53.6346 668.377 53.6858H698.717C702.069 53.6858 704.794 56.37 704.794 59.7252C704.794 63.0805 702.069 65.8094 698.717 65.8094H675.125V78.3357H690.764C693.847 78.3357 696.305 80.7515 696.305 83.7936C696.305 86.8358 693.847 89.2963 690.764 89.2963H675.125V104.194H699.924C703.275 104.194 706.001 106.878 706.001 110.233C706.001 113.588 703.275 116.273 699.924 116.273L668.377 116.317Z" fill="#131F3E"/>
<path d="M10.9917 167.809C8.58358 166.643 6.43196 165.008 4.66284 162.999C2.89373 160.991 1.54269 158.649 0.688805 156.111C-0.165078 153.573 -0.50463 150.89 -0.309955 148.219C-0.115279 145.548 0.609693 142.943 1.82253 140.556C3.03537 138.169 4.7117 136.049 6.75333 134.318C8.79495 132.588 11.1609 131.283 13.7125 130.48C16.2641 129.677 18.9502 129.391 21.6135 129.64C24.2767 129.889 26.8636 130.667 29.2226 131.93C33.8636 134.413 37.3473 138.619 38.9259 143.645C40.5045 148.671 40.0522 154.117 37.6661 158.812C35.28 163.508 31.1503 167.081 26.1633 168.763C21.1762 170.444 15.7294 170.102 10.9917 167.809V167.809Z" fill="#F54703"/>
<path d="M7.05961 32.3462C0.815883 43.9714 -1.35772 57.3558 0.885794 70.3626C3.12931 83.3695 9.66057 95.2488 19.4369 104.104C21.6711 106.162 25.1564 106.117 27.3013 104.059C31.5653 100.025 34.5092 94.7932 35.7455 89.0516C36.9818 83.31 36.4525 77.3282 34.2272 71.8936C31.79 66.2693 31.1906 60.0177 32.5148 54.032C33.8389 48.0462 37.0187 42.6326 41.6 38.5646C46.2809 34.3971 52.0936 31.7169 58.2995 30.8646C64.5053 30.0123 70.8242 31.0263 76.4531 33.7778C82.019 36.4188 86.6192 40.7382 89.6084 46.1299C92.5975 51.5216 93.8255 57.715 93.1201 63.841C92.2967 69.9833 89.6029 75.7224 85.4054 80.2772C81.2078 84.832 75.7103 87.9812 69.6612 89.2962C63.8949 90.6629 58.6585 93.7 54.6057 98.0281C50.5529 102.356 47.8633 107.784 46.8726 113.633C46.4258 116.541 48.4365 119.27 51.475 119.807C82.0833 125.175 112.111 107.907 121.896 79.3646C131.727 50.7331 118.322 19.5515 90.4838 6.13044C60.4564 -8.27482 22.5201 3.66991 7.05961 32.3462V32.3462Z" fill="url(#paint0_linear_395_13989)"/>
</g>
<defs>
<linearGradient id="paint0_linear_395_13989" x1="34.4506" y1="114.215" x2="90.7232" y2="6.49862" gradientUnits="userSpaceOnUse">
<stop offset="0.01" stop-color="#F54703"/>
<stop offset="1" stop-color="#FAC902"/>
</linearGradient>
<clipPath id="clip0_395_13989">
<rect width="706" height="170" fill="white"/>
</clipPath>
</defs>
</svg>
