<svg width="706" height="171" viewBox="0 0 706 171" fill="none" xmlns="http://www.w3.org/2000/svg">
<mask id="mask0_395_14055" style="mask-type:luminance" maskUnits="userSpaceOnUse" x="0" y="0" width="706" height="171">
<path d="M705.929 0.0585938H0.928711V170.067H705.929V0.0585938Z" fill="white"/>
</mask>
<g mask="url(#mask0_395_14055)">
<path d="M187.798 83.7204H197.57C199.98 83.8546 202.3 82.9151 204.04 81.1255C205.736 79.3359 206.628 76.8753 206.494 74.3699C206.494 68.8223 202.924 65.1537 197.57 65.1537H187.798V83.7204ZM181.373 116.379C179.633 116.424 177.982 115.708 176.732 114.411C175.528 113.113 174.903 111.324 174.948 109.49V60.6351C174.903 58.756 175.572 57.0112 176.777 55.7138C178.026 54.3716 179.722 53.7005 181.462 53.7453H197.481C210.733 53.7453 219.568 62.022 219.568 74.3252C219.568 86.7179 210.465 95.0841 197.481 95.0841H187.798V109.49C187.843 111.324 187.218 113.069 186.013 114.411C184.764 115.753 183.113 116.424 181.373 116.379Z" fill="white"/>
<path d="M250.936 83.5857H261.199C262.442 83.6631 263.687 83.4762 264.853 83.0371C266.019 82.5981 267.079 81.9169 267.963 81.0381C268.848 80.1594 269.538 79.1031 269.987 77.9384C270.436 76.7737 270.634 75.527 270.569 74.28C270.569 68.7772 266.776 65.1086 261.199 65.1086H250.936V83.5857ZM280.252 116.156C277.708 116.2 275.343 114.903 274.094 112.711L262.27 94.9047H250.891V109.311C250.891 111.102 250.182 112.821 248.918 114.088C247.654 115.354 245.941 116.066 244.154 116.066C242.367 116.066 240.653 115.354 239.39 114.088C238.126 112.821 237.416 111.102 237.416 109.311V60.5899C237.385 59.6787 237.541 58.7708 237.876 57.923C238.211 57.0753 238.716 56.306 239.362 55.6634C240.007 55.0208 240.777 54.5187 241.625 54.1885C242.472 53.8584 243.379 53.7074 244.288 53.7449H261.109C275.031 53.7449 284.312 61.9768 284.312 74.1906C284.382 77.3358 283.692 80.4513 282.301 83.2714C280.911 86.0915 278.86 88.5324 276.325 90.3861L274.986 91.3256L284.446 104.703C285.695 106.268 286.409 108.192 286.498 110.205C286.418 111.812 285.725 113.326 284.562 114.433C283.399 115.541 281.856 116.158 280.252 116.156Z" fill="white"/>
<path d="M328.888 65.6905C326.311 65.5638 323.736 65.9771 321.328 66.9041C318.919 67.831 316.73 69.2511 314.899 71.0739C313.069 72.8966 311.637 75.0821 310.696 77.4907C309.755 79.8992 309.325 82.478 309.434 85.0624C309.304 87.6522 309.72 90.2401 310.654 92.6582C311.587 95.0763 313.018 97.2703 314.853 99.0975C316.688 100.924 318.886 102.344 321.304 103.263C323.722 104.183 326.306 104.582 328.888 104.434C340.489 104.434 348.342 96.4709 348.342 85.0624C348.437 82.4815 347.998 79.9087 347.052 77.5064C346.106 75.1041 344.674 72.9243 342.847 71.1044C341.019 69.2844 338.835 67.8638 336.433 66.932C334.03 66.0002 331.461 65.5775 328.888 65.6905ZM328.799 116.379C310.058 116.379 295.423 102.645 295.423 85.0624C295.423 67.48 310.103 53.7451 328.799 53.7451C347.495 53.7451 362.353 67.48 362.353 85.0624C362.353 102.645 347.629 116.379 328.799 116.379Z" fill="white"/>
<path d="M398.049 116.379C397.155 116.392 396.268 116.223 395.441 115.881C394.615 115.54 393.866 115.034 393.24 114.394C392.614 113.754 392.124 112.993 391.8 112.158C391.477 111.323 391.325 110.43 391.355 109.534V65.6457H377.166C373.909 65.6457 371.276 62.9614 371.276 59.6955C371.276 56.3848 373.909 53.7451 377.166 53.7451H418.931C422.188 53.7451 424.821 56.4295 424.821 59.6955C424.821 62.9614 422.188 65.6457 418.931 65.6457H404.786V109.49C404.831 111.324 404.161 113.113 402.868 114.411C401.574 115.753 399.833 116.424 398.004 116.379H398.049Z" fill="white"/>
<path d="M462.748 65.6905C460.172 65.5638 457.597 65.9771 455.188 66.9041C452.78 67.831 450.59 69.2511 448.76 71.0739C446.929 72.8966 445.498 75.0821 444.557 77.4907C443.615 79.8992 443.185 82.478 443.294 85.0624C443.165 87.6522 443.58 90.2401 444.514 92.6582C445.448 95.0763 446.878 97.2703 448.713 99.0975C450.548 100.924 452.746 102.344 455.164 103.263C457.582 104.183 460.166 104.582 462.748 104.434C474.35 104.434 482.203 96.4709 482.203 85.0624C482.298 82.4815 481.858 79.9087 480.913 77.5064C479.967 75.1041 478.535 72.9243 476.707 71.1044C474.879 69.2844 472.695 67.8638 470.293 66.932C467.891 66.0002 465.322 65.5775 462.748 65.6905ZM462.659 116.379C443.919 116.379 429.283 102.645 429.283 85.0624C429.283 67.48 443.963 53.7451 462.659 53.7451C481.355 53.7451 496.214 67.48 496.214 85.0624C496.214 102.645 481.444 116.379 462.659 116.379Z" fill="white"/>
<path d="M516.158 116.379C515.279 116.411 514.404 116.255 513.589 115.924C512.774 115.592 512.038 115.092 511.429 114.456C510.179 113.113 509.51 111.324 509.644 109.534V60.5901C509.555 58.7111 510.224 56.9663 511.473 55.6688C512.723 54.3267 514.463 53.6556 516.248 53.7003H544.001C547.169 53.7003 549.757 56.3847 549.757 59.6506C549.775 60.4218 549.64 61.1889 549.359 61.9072C549.078 62.6255 548.658 63.2805 548.122 63.8343C547.586 64.3881 546.946 64.8294 546.239 65.1327C545.531 65.436 544.771 65.5952 544.001 65.6009H522.718V81.2595H539.004C542.217 81.2595 544.805 83.9439 544.805 87.2545C544.816 88.0258 544.675 88.7917 544.389 89.5077C544.103 90.2237 543.677 90.8755 543.138 91.4251C542.598 91.9747 541.954 92.4111 541.245 92.709C540.535 93.0068 539.773 93.1602 539.004 93.1601H522.718V109.49C522.807 111.279 522.137 113.069 520.888 114.411C519.639 115.708 517.943 116.379 516.158 116.335V116.379Z" fill="white"/>
<path d="M574.298 116.379C572.514 116.424 570.729 115.753 569.479 114.5C568.846 113.872 568.351 113.117 568.028 112.285C567.706 111.452 567.561 110.561 567.605 109.669V60.6795C567.516 58.2636 568.765 55.9372 570.863 54.6845C571.903 54.0663 573.089 53.7402 574.298 53.7402C575.507 53.7402 576.694 54.0663 577.734 54.6845C579.831 55.9372 581.081 58.2636 580.991 60.6795V109.669C581.081 111.458 580.411 113.248 579.162 114.5C577.868 115.798 576.128 116.469 574.298 116.424V116.379Z" fill="white"/>
<path d="M612.36 83.5857H622.623C623.864 83.656 625.106 83.4642 626.269 83.0226C627.431 82.581 628.488 81.8995 629.372 81.0223C630.255 80.1451 630.945 79.0917 631.396 77.9302C631.848 76.7688 632.051 75.5252 631.993 74.28C631.993 68.7772 628.245 65.1086 622.623 65.1086H612.36V83.5857ZM641.72 116.156C639.221 116.2 636.812 114.903 635.607 112.711L623.738 94.9047H612.36V109.311C612.445 110.549 612.186 111.786 611.612 112.886C611.038 113.985 610.171 114.904 609.108 115.539C608.045 116.174 606.826 116.501 605.589 116.483C604.351 116.466 603.142 116.105 602.097 115.44C601.048 114.813 600.19 113.911 599.616 112.831C599.042 111.75 598.774 110.533 598.84 109.311V60.5899C598.808 59.6787 598.965 58.7708 599.3 57.923C599.635 57.0753 600.14 56.306 600.785 55.6634C601.431 55.0208 602.201 54.5187 603.049 54.1885C603.896 53.8584 604.803 53.7074 605.711 53.7449H622.533C636.455 53.7449 645.736 61.9768 645.736 74.1906C645.793 77.3322 645.093 80.4413 643.695 83.2533C642.297 86.0653 640.241 88.4969 637.704 90.3413L636.41 91.3256L645.87 104.703C647.119 106.268 647.833 108.192 647.922 110.205C647.842 111.804 647.155 113.311 646.002 114.418C644.848 115.524 643.316 116.146 641.72 116.156Z" fill="white"/>
<path d="M668.359 116.38C667.428 116.411 666.501 116.251 665.635 115.909C664.769 115.568 663.981 115.052 663.321 114.395C662.661 113.737 662.142 112.95 661.795 112.084C661.449 111.218 661.284 110.289 661.309 109.356V60.7693C661.263 59.8311 661.415 58.8938 661.754 58.0181C662.093 57.1425 662.612 56.3479 663.276 55.6858C663.941 55.0237 664.736 54.5089 665.612 54.1746C666.487 53.8404 667.423 53.6941 668.359 53.7453H698.656C702.002 53.7453 704.724 56.4296 704.724 59.785C704.724 63.1404 702.002 65.8695 698.656 65.8695H675.096V78.3964H690.713C693.792 78.3964 696.246 80.8123 696.246 83.8546C696.246 86.8968 693.792 89.3575 690.713 89.3575H675.096V104.256H699.86C703.207 104.256 705.929 106.94 705.929 110.296C705.929 113.651 703.207 116.336 699.86 116.336L668.359 116.38Z" fill="white"/>
<path d="M11.9053 167.874C9.5006 166.708 7.35202 165.073 5.58541 163.064C3.8188 161.056 2.46967 158.714 1.617 156.176C0.764329 153.638 0.425258 150.955 0.619657 148.284C0.814057 145.612 1.538 143.007 2.74912 140.62C3.96024 138.233 5.6342 136.112 7.67293 134.382C9.71167 132.652 12.0742 131.347 14.6222 130.543C17.1703 129.74 19.8525 129.454 22.512 129.703C25.1715 129.952 27.7547 130.731 30.1104 131.993C34.7448 134.477 38.2236 138.683 39.7999 143.709C41.3763 148.736 40.9246 154.181 38.5419 158.877C36.1592 163.574 32.0353 167.146 27.0554 168.828C22.0754 170.51 16.6363 170.167 11.9053 167.874Z" fill="white"/>
<path d="M7.97836 32.4049C1.74347 44.0307 -0.427051 57.4157 1.81329 70.4231C4.05362 83.4305 10.5756 95.3104 20.3382 104.167C22.5692 106.225 26.0496 106.18 28.1913 104.122C32.4493 100.088 35.3891 94.8548 36.6236 89.1129C37.8581 83.3711 37.3296 77.3889 35.1075 71.9541C32.6737 66.3296 32.0752 60.0777 33.3975 54.0917C34.7197 48.1057 37.895 42.6918 42.4698 38.6236C47.1441 34.4559 52.9486 31.7756 59.1456 30.9232C65.3427 30.0708 71.6527 31.0849 77.2736 33.8365C82.8315 36.4776 87.4253 40.7972 90.4102 46.1892C93.3951 51.5811 94.6214 57.7748 93.9169 63.9011C93.0947 70.0437 90.4048 75.7831 86.2132 80.3382C82.0215 84.8932 76.5318 88.0425 70.4913 89.3576C64.7332 90.7244 59.5042 93.7615 55.4571 98.0899C51.41 102.419 48.7242 107.847 47.735 113.696C47.2888 116.604 49.2967 119.333 52.3309 119.87C82.8957 125.239 112.881 107.969 122.652 79.4255C132.469 50.7926 119.083 19.6096 91.2844 6.18786C61.2996 -8.21808 23.417 3.7272 7.97836 32.4049Z" fill="white"/>
</g>
</svg>
